0
SECTION
2
HEADER
9
$INSUNITS
70
4
0
ENDSEC
0
SECTION
2
ENTITIES
0
LWPOLYLINE
8
BACK_A01
90
4
70
1
10
0
20
0
10
1200
20
0
10
1200
20
800
10
0
20
800
0
LWPOLYLINE
8
L01
90
4
70
1
10
40.0
20
280.0
10
55.0
20
280.0
10
55.0
20
625.0
10
40.0
20
625.0
0
LWPOLYLINE
8
L02
90
4
70
1
10
335.0
20
280.0
10
350.0
20
280.0
10
350.0
20
625.0
10
335.0
20
625.0
0
LWPOLYLINE
8
L03
90
4
70
1
10
55.0
20
280.0
10
335.0
20
280.0
10
335.0
20
295.0
10
55.0
20
295.0
0
LWPOLYLINE
8
L04
90
4
70
1
10
55.0
20
445.0
10
335.0
20
445.0
10
335.0
20
460.0
10
55.0
20
460.0
0
LWPOLYLINE
8
L05
90
4
70
1
10
55.0
20
610.0
10
335.0
20
610.0
10
335.0
20
625.0
10
55.0
20
625.0
0
LWPOLYLINE
8
R01
90
4
70
1
10
850.0
20
280.0
10
865.0
20
280.0
10
865.0
20
660.0
10
850.0
20
660.0
0
LWPOLYLINE
8
R02
90
4
70
1
10
1145.0
20
280.0
10
1160.0
20
280.0
10
1160.0
20
660.0
10
1145.0
20
660.0
0
LWPOLYLINE
8
R03
90
4
70
1
10
865.0
20
280.0
10
1145.0
20
280.0
10
1145.0
20
295.0
10
865.0
20
295.0
0
LWPOLYLINE
8
R04
90
4
70
1
10
865.0
20
645.0
10
1145.0
20
645.0
10
1145.0
20
660.0
10
865.0
20
660.0
0
LWPOLYLINE
8
C01
90
4
70
1
10
385.0
20
280.0
10
400.0
20
280.0
10
400.0
20
460.0
10
385.0
20
460.0
0
LWPOLYLINE
8
C02
90
4
70
1
10
800.0
20
280.0
10
815.0
20
280.0
10
815.0
20
460.0
10
800.0
20
460.0
0
LWPOLYLINE
8
C03
90
4
70
1
10
400.0
20
280.0
10
800.0
20
280.0
10
800.0
20
295.0
10
400.0
20
295.0
0
LWPOLYLINE
8
C04
90
4
70
1
10
400.0
20
445.0
10
800.0
20
445.0
10
800.0
20
460.0
10
400.0
20
460.0
0
LWPOLYLINE
8
C05
90
4
70
1
10
520.0
20
295.0
10
535.0
20
295.0
10
535.0
20
445.0
10
520.0
20
445.0
0
LWPOLYLINE
8
C06
90
4
70
1
10
665.0
20
295.0
10
680.0
20
295.0
10
680.0
20
445.0
10
665.0
20
445.0
0
LWPOLYLINE
8
B01
90
4
70
1
10
30.0
20
40.0
10
45.0
20
40.0
10
45.0
20
270.0
10
30.0
20
270.0
0
LWPOLYLINE
8
B02
90
4
70
1
10
1155.0
20
40.0
10
1170.0
20
40.0
10
1170.0
20
270.0
10
1155.0
20
270.0
0
LWPOLYLINE
8
B03
90
4
70
1
10
45.0
20
40.0
10
1155.0
20
40.0
10
1155.0
20
55.0
10
45.0
20
55.0
0
LWPOLYLINE
8
B04
90
4
70
1
10
45.0
20
255.0
10
1155.0
20
255.0
10
1155.0
20
270.0
10
45.0
20
270.0
0
ENDSEC
0
EOF
